<?xml version="1.0" ?><svg viewBox="0 0 100 100" xmlns="http://www.w3.org/2000/svg"><defs><style>.cls-1{fill:none;stroke:#000;stroke-linecap:round;stroke-linejoin:round;}</style></defs><g data-name="Layer 2" id="Layer_2"><path d="M56.33,91.08H42.76a.5.5,0,0,1-.5-.5V85.45a35.89,35.89,0,0,1-12.51-5.37L26,83.85a.5.5,0,0,1-.7,0l-9.59-9.6a.48.48,0,0,1,0-.7l3.87-3.88a35.58,35.58,0,0,1-5.07-12.38H9a.5.5,0,0,1-.5-.5V43.21a.5.5,0,0,1,.5-.5h5.54a35.44,35.44,0,0,1,1.91-6.32.5.5,0,1,1,.93.37,34.83,34.83,0,0,0-1.94,6.54.49.49,0,0,1-.49.41H9.45V56.29H14.9a.49.49,0,0,1,.49.41,34.62,34.62,0,0,0,5.23,12.76.5.5,0,0,1-.07.63l-3.8,3.81,8.88,8.89,3.71-3.71A.49.49,0,0,1,30,79a35,35,0,0,0,12.89,5.53.5.5,0,0,1,.4.49v5H55.83V85.23a.49.49,0,0,1,.41-.49,35.39,35.39,0,0,0,8.18-2.52.5.5,0,0,1,.41.92,36.8,36.8,0,0,1-8,2.51v4.93A.5.5,0,0,1,56.33,91.08Z"/><path d="M83.16,64.08A.41.41,0,0,1,83,64a.5.5,0,0,1-.28-.65,35,35,0,0,0,2-6.69.49.49,0,0,1,.49-.41h4.44V43.71H85.18a.49.49,0,0,1-.49-.41,35,35,0,0,0-5.62-13.37.49.49,0,0,1,.06-.63l3.2-3.2-8.89-8.89-3.3,3.3a.5.5,0,0,1-.63.07,35,35,0,0,0-13.27-5.32.49.49,0,0,1-.41-.49V9.92H43.26v5a.5.5,0,0,1-.4.49,34.24,34.24,0,0,0-6.59,2.06.5.5,0,0,1-.66-.27.49.49,0,0,1,.27-.65,35.9,35.9,0,0,1,6.38-2V9.42a.5.5,0,0,1,.5-.5H56.33a.5.5,0,0,1,.5.5v4.93a36,36,0,0,1,12.89,5.17l3.36-3.37a.51.51,0,0,1,.36-.15h0a.47.47,0,0,1,.35.15l9.6,9.6a.48.48,0,0,1,0,.7l-3.26,3.26a36,36,0,0,1,5.46,13h4.53a.5.5,0,0,1,.5.5V56.79a.5.5,0,0,1-.5.5H85.59a35.87,35.87,0,0,1-2,6.48A.51.51,0,0,1,83.16,64.08Z"/><path d="M29.92,43.76a.51.51,0,0,1-.36-.15l-12-12a9.72,9.72,0,0,1,0-13.72,9.69,9.69,0,0,1,13.73,0l12,12a.5.5,0,1,1-.71.71l-12-12A8.72,8.72,0,0,0,18.28,30.93l12,12a.51.51,0,0,1,0,.71A.5.5,0,0,1,29.92,43.76Z"/><path d="M50,48.44a5.25,5.25,0,0,1,0-10.5,5.33,5.33,0,0,1,1.47.21.5.5,0,0,1,.34.62.51.51,0,0,1-.62.34A4.39,4.39,0,0,0,50,38.94a4.25,4.25,0,1,0,4.25,4.25A4.44,4.44,0,0,0,54.08,42a.5.5,0,1,1,1-.28,5.33,5.33,0,0,1,.21,1.47A5.26,5.26,0,0,1,50,48.44Z"/><path d="M74.91,84.94h0a9.59,9.59,0,0,1-6.85-2.85L56.39,70.44a.5.5,0,0,1,.71-.71L68.75,81.39a8.66,8.66,0,0,0,6.15,2.55h0a8.71,8.71,0,0,0,6.16-14.87L69.41,57.42a.5.5,0,1,1,.71-.71L81.77,68.37a9.71,9.71,0,0,1-6.86,16.57Z"/><path class="cls-1" d="M41.42,63.18a17,17,0,0,0,1.77,1V56.68a.66.66,0,0,1,0-.14c.08-3.06,3.1-5.5,6.8-5.5a7.59,7.59,0,0,1,4.82,1.65,5.19,5.19,0,0,1,2,4v7.49a15.72,15.72,0,0,0,8.66-11.4A14.87,14.87,0,0,0,65.72,50,15.72,15.72,0,0,0,50,34.28a14.87,14.87,0,0,0-2.77.25A15.72,15.72,0,0,0,34.44,47.78,14.78,14.78,0,0,0,34.28,50m0,0a15.72,15.72,0,0,0,7.14,13.18M50,47.94a4.75,4.75,0,0,1,0-9.5,4.86,4.86,0,0,1,1.33.19,4.76,4.76,0,0,1,3.23,3.23,4.86,4.86,0,0,1,.19,1.33A4.75,4.75,0,0,1,50,47.94Z"/><path d="M50,48.44a5.25,5.25,0,0,1,0-10.5,5.25,5.25,0,0,1,5.25,5.25A5.26,5.26,0,0,1,50,48.44Zm0-9.5a4.25,4.25,0,1,0,4.25,4.25A4.5,4.5,0,0,0,54.08,42a4.28,4.28,0,0,0-2.89-2.89A4.39,4.39,0,0,0,50,38.94Z"/><path d="M50,66.22a16.11,16.11,0,0,1-7-1.6.5.5,0,0,1-.28-.45V56.68a1.29,1.29,0,0,1,0-.25c.08-3.26,3.28-5.89,7.29-5.89a8.14,8.14,0,0,1,5.14,1.76,5.68,5.68,0,0,1,2.17,4.38v7.49a.5.5,0,0,1-.28.45,16.18,16.18,0,0,1-4.74,1.44A16.57,16.57,0,0,1,50,66.22Zm-6.31-2.37A15.06,15.06,0,0,0,50,65.22a14.57,14.57,0,0,0,2.14-.15,15.19,15.19,0,0,0,4.17-1.22V56.68a4.68,4.68,0,0,0-1.81-3.61A7.12,7.12,0,0,0,50,51.54c-3.4,0-6.23,2.25-6.3,5l-.51.13h.5Zm13.12.32h0Z"/><path d="M50,48.44a5.25,5.25,0,0,1,0-10.5,5.25,5.25,0,0,1,5.25,5.25A5.26,5.26,0,0,1,50,48.44Zm0-9.5a4.25,4.25,0,1,0,4.25,4.25A4.5,4.5,0,0,0,54.08,42a4.28,4.28,0,0,0-2.89-2.89A4.39,4.39,0,0,0,50,38.94Z"/><path d="M88,95.88a6,6,0,1,1,6-6A6,6,0,0,1,88,95.88Zm0-10.94a5,5,0,1,0,5,5A5,5,0,0,0,88,84.94Z"/><path d="M12.21,16.47a6,6,0,1,1,6-6A6,6,0,0,1,12.21,16.47Zm0-10.94a5,5,0,1,0,5,5A5,5,0,0,0,12.21,5.53Z"/></g></svg>